<svg version="1" xmlns="http://www.w3.org/2000/svg" width="346.667" height="346.667" viewBox="0 0 260.000000 260.000000"><path d="M63.6 20.5c-.9 1.3-2.8 4.6-4.3 7.2-1.4 2.6-3.5 6.1-4.5 7.8-1 1.6-2.1 3.7-2.5 4.5-.3.8-2.5 4.6-4.8 8.5-12.7 21.3-46.8 81-46.8 82 0 .7 6.9 13.1 15.3 27.6 8.4 14.5 16.3 28.2 17.6 30.4 1.2 2.2 8.7 15.2 16.7 29l14.4 25h130.5l32.4-55.9 32.4-55.9-3.2-5.6c-1.7-3.1-12-20.9-22.8-39.6-10.8-18.7-20.8-36-22.2-38.5-1.4-2.5-5.7-9.9-9.6-16.5l-7-12-65-.3-65-.2-1.6 2.5zm34.8 39.7l9.9 9.5 6.9-1.8c9.2-2.4 19.5-2.8 29.2-1.2l7.9 1.4 4.1-4C168.6 52.3 179.6 42 180.2 42c.3 0 .7 6.6.8 14.7.2 14.5.6 28.2.9 29.4 0 .4 1.4 2.2 3.1 4 1.6 1.9 3.7 4.9 4.7 6.7l1.8 3.2-10.5 10.5c-5.8 5.8-11.2 10.5-12.2 10.5s-3.2-2.3-5.3-5.6c-2-3.1-5.1-7-6.8-8.6-10-9.3-26.4-11.9-38.6-6.1-18.1 8.6-26.1 28.2-19 46.8 3.1 8.3 12.1 17.3 20.4 20.5 17.5 6.6 36.2-.7 45.7-17.9.9-1.7 2.5-3.1 3.4-3.1 1.9 0 22.4 20.1 22.4 22 0 3.4-13.2 17.2-21.4 22.5-36.8 23.5-85.7 7.1-101.2-34.1-3-8.1-3.8-13.1-3.8-24.4.1-13.3 2.6-22.2 9.7-34.4 3-5.2 3.1-6.7 3.7-44.6.1-5.8.4-10.9.7-11.3.3-.5 2.6 1.1 5.2 3.6 2.5 2.4 9.1 8.7 14.5 13.9z"/></svg>